{
  "title" : "",
  "description" : "",
  "author" : "",
  "targetLoudness" : -18.0,
  "shouldApplyLoudnessNormalization" : true,
  "videoFormatFrameRate" : 30,
  "audioFormatSampleRate" : 44100,
  "width" : 1364.0,
  "height" : 728.0,
  "version" : "3.0",
  "editRate" : 30,
  "authoringClientName" :  {
    "name" : "Camtasia",
    "platform" : "Windows",
    "version" : "19.0"
  },
  "sourceBin" : [
    {
      "id" : 1,
      "src" : "C:\\Users\\hp\\OneDrive\\Documents\\Camtasia\\Rec 06-01-22.trec",
      "rect" : [0, 0, 1364, 728],
      "lastMod" : "20220601T142244",
      "sourceTracks" : [
        {
          "range" : [0, 3618],
          "type" : 0,
          "editRate" : 30,
          "trackRect" : [0, 0, 1364, 728],
          "sampleRate" : 26,
          "bitDepth" : 0,
          "numChannels" : 0,
          "integratedLUFS" : 100.0,
          "peakLevel" : -1.0,
          "metaData" : "2b7b6a00-7a1f-11e2-83d0-0017f200be7f;2b7b6aef-7a1f-11e2-83d0-0017f200be7f;2b7b6af0-7a1f-11e2-83d0-0017f200be7f;2b7b6af1-7a1f-11e2-83d0-0017f200be7f;2b7b6af2-7a1f-11e2-83d0-0017f200be7f;2b7b6af3-7a1f-11e2-83d0-0017f200be7f;2b7b6af5-7a1f-11e2-83d0-0017f200be7f;2b7b6af6-7a1f-11e2-83d0-0017f200be7f;2b7b6af7-7a1f-11e2-83d0-0017f200be7f;2b7b6af8-7a1f-11e2-83d0-0017f200be7f;2b7b6af9-7a1f-11e2-83d0-0017f200be7f;2b7b6afa-7a1f-11e2-83d0-0017f200be7f;"
        }
      ],
      "metadata" : {
        "timeAdded" : "20220601T142246.078617"
      }
    },
    {
      "id" : 2,
      "src" : "C:\\Users\\hp\\OneDrive\\Documents\\Camtasia\\Rec 06-01-22_001.trec",
      "rect" : [0, 0, 1364, 728],
      "lastMod" : "20220601T145319",
      "sourceTracks" : [
        {
          "range" : [0, 3823],
          "type" : 0,
          "editRate" : 30,
          "trackRect" : [0, 0, 1364, 728],
          "sampleRate" : 27,
          "bitDepth" : 0,
          "numChannels" : 0,
          "integratedLUFS" : 100.0,
          "peakLevel" : -1.0,
          "metaData" : "2b7b6a00-7a1f-11e2-83d0-0017f200be7f;2b7b6aef-7a1f-11e2-83d0-0017f200be7f;2b7b6af0-7a1f-11e2-83d0-0017f200be7f;2b7b6af1-7a1f-11e2-83d0-0017f200be7f;2b7b6af2-7a1f-11e2-83d0-0017f200be7f;2b7b6af3-7a1f-11e2-83d0-0017f200be7f;2b7b6af5-7a1f-11e2-83d0-0017f200be7f;2b7b6af6-7a1f-11e2-83d0-0017f200be7f;2b7b6af7-7a1f-11e2-83d0-0017f200be7f;2b7b6af8-7a1f-11e2-83d0-0017f200be7f;2b7b6af9-7a1f-11e2-83d0-0017f200be7f;2b7b6afa-7a1f-11e2-83d0-0017f200be7f;"
        }
      ],
      "metadata" : {
        "timeAdded" : "20220601T145321.113080"
      }
    },
    {
      "id" : 3,
      "src" : "C:\\Users\\hp\\OneDrive\\Documents\\Camtasia\\Rec 06-01-22_002.trec",
      "rect" : [0, 0, 1364, 728],
      "lastMod" : "20220601T150712",
      "sourceTracks" : [
        {
          "range" : [0, 731],
          "type" : 0,
          "editRate" : 30,
          "trackRect" : [0, 0, 1364, 728],
          "sampleRate" : 27,
          "bitDepth" : 0,
          "numChannels" : 0,
          "integratedLUFS" : 100.0,
          "peakLevel" : -1.0,
          "metaData" : "2b7b6a00-7a1f-11e2-83d0-0017f200be7f;2b7b6aef-7a1f-11e2-83d0-0017f200be7f;2b7b6af0-7a1f-11e2-83d0-0017f200be7f;2b7b6af1-7a1f-11e2-83d0-0017f200be7f;2b7b6af2-7a1f-11e2-83d0-0017f200be7f;2b7b6af3-7a1f-11e2-83d0-0017f200be7f;2b7b6af5-7a1f-11e2-83d0-0017f200be7f;2b7b6af6-7a1f-11e2-83d0-0017f200be7f;2b7b6af7-7a1f-11e2-83d0-0017f200be7f;2b7b6af8-7a1f-11e2-83d0-0017f200be7f;2b7b6af9-7a1f-11e2-83d0-0017f200be7f;2b7b6afa-7a1f-11e2-83d0-0017f200be7f;"
        }
      ],
      "metadata" : {
        "timeAdded" : "20220601T150713.563017"
      }
    },
    {
      "id" : 4,
      "src" : "C:\\Users\\hp\\OneDrive\\Documents\\Camtasia\\Rec 06-01-22_003.trec",
      "rect" : [0, 0, 1364, 728],
      "lastMod" : "20220601T151120",
      "sourceTracks" : [
        {
          "range" : [0, 2145],
          "type" : 0,
          "editRate" : 30,
          "trackRect" : [0, 0, 1364, 728],
          "sampleRate" : 25,
          "bitDepth" : 0,
          "numChannels" : 0,
          "integratedLUFS" : 100.0,
          "peakLevel" : -1.0,
          "metaData" : "2b7b6a00-7a1f-11e2-83d0-0017f200be7f;2b7b6aef-7a1f-11e2-83d0-0017f200be7f;2b7b6af0-7a1f-11e2-83d0-0017f200be7f;2b7b6af1-7a1f-11e2-83d0-0017f200be7f;2b7b6af2-7a1f-11e2-83d0-0017f200be7f;2b7b6af3-7a1f-11e2-83d0-0017f200be7f;2b7b6af5-7a1f-11e2-83d0-0017f200be7f;2b7b6af6-7a1f-11e2-83d0-0017f200be7f;2b7b6af7-7a1f-11e2-83d0-0017f200be7f;2b7b6af8-7a1f-11e2-83d0-0017f200be7f;2b7b6af9-7a1f-11e2-83d0-0017f200be7f;2b7b6afa-7a1f-11e2-83d0-0017f200be7f;"
        }
      ],
      "metadata" : {
        "timeAdded" : "20220601T151121.978622"
      }
    },
    {
      "id" : 5,
      "src" : "C:\\Users\\hp\\OneDrive\\Documents\\Camtasia\\Rec 06-01-22_004.trec",
      "rect" : [0, 0, 1364, 728],
      "lastMod" : "20220601T151346",
      "sourceTracks" : [
        {
          "range" : [0, 1081],
          "type" : 0,
          "editRate" : 30,
          "trackRect" : [0, 0, 1364, 728],
          "sampleRate" : 26,
          "bitDepth" : 0,
          "numChannels" : 0,
          "integratedLUFS" : 100.0,
          "peakLevel" : -1.0,
          "metaData" : "2b7b6a00-7a1f-11e2-83d0-0017f200be7f;2b7b6aef-7a1f-11e2-83d0-0017f200be7f;2b7b6af0-7a1f-11e2-83d0-0017f200be7f;2b7b6af1-7a1f-11e2-83d0-0017f200be7f;2b7b6af2-7a1f-11e2-83d0-0017f200be7f;2b7b6af3-7a1f-11e2-83d0-0017f200be7f;2b7b6af5-7a1f-11e2-83d0-0017f200be7f;2b7b6af6-7a1f-11e2-83d0-0017f200be7f;2b7b6af7-7a1f-11e2-83d0-0017f200be7f;2b7b6af8-7a1f-11e2-83d0-0017f200be7f;2b7b6af9-7a1f-11e2-83d0-0017f200be7f;2b7b6afa-7a1f-11e2-83d0-0017f200be7f;"
        }
      ],
      "metadata" : {
        "timeAdded" : "20220601T151348.071473"
      }
    },
    {
      "id" : 6,
      "src" : "C:\\Users\\hp\\OneDrive\\Documents\\Camtasia\\Rec 06-01-22_006.trec",
      "rect" : [0, 0, 1364, 728],
      "lastMod" : "20220601T153839",
      "sourceTracks" : [
        {
          "range" : [0, 513],
          "type" : 0,
          "editRate" : 30,
          "trackRect" : [0, 0, 1364, 728],
          "sampleRate" : 27,
          "bitDepth" : 0,
          "numChannels" : 0,
          "integratedLUFS" : 100.0,
          "peakLevel" : -1.0,
          "metaData" : "2b7b6a00-7a1f-11e2-83d0-0017f200be7f;2b7b6aef-7a1f-11e2-83d0-0017f200be7f;2b7b6af0-7a1f-11e2-83d0-0017f200be7f;2b7b6af1-7a1f-11e2-83d0-0017f200be7f;2b7b6af2-7a1f-11e2-83d0-0017f200be7f;2b7b6af3-7a1f-11e2-83d0-0017f200be7f;2b7b6af5-7a1f-11e2-83d0-0017f200be7f;2b7b6af6-7a1f-11e2-83d0-0017f200be7f;2b7b6af7-7a1f-11e2-83d0-0017f200be7f;2b7b6af8-7a1f-11e2-83d0-0017f200be7f;2b7b6af9-7a1f-11e2-83d0-0017f200be7f;2b7b6afa-7a1f-11e2-83d0-0017f200be7f;"
        }
      ],
      "metadata" : {
        "timeAdded" : "20220601T153840.585786"
      }
    },
    {
      "id" : 7,
      "src" : "C:\\Users\\hp\\Downloads\\Music\\y2mate.com - Soft background music no copyright  Soft copyright free background music.mp3",
      "rect" : [0, 0, 0, 0],
      "lastMod" : "20220521T193616",
      "sourceTracks" : [
        {
          "range" : [0, 1801141875],
          "type" : 2,
          "editRate" : 10000000,
          "trackRect" : [0, 0, 0, 0],
          "sampleRate" : 44100,
          "bitDepth" : 0,
          "numChannels" : 2,
          "integratedLUFS" : -10.6479888848811,
          "peakLevel" : 0.999337375164032,
          "metaData" : ""
        }
      ],
      "metadata" : {
        "timeAdded" : "20220601T154311.137653"
      }
    },
    {
      "id" : 8,
      "src" : "C:\\Users\\hp\\Downloads\\Music\\y2mate.com - relaxdaily N079 cool  calm soft  slow  relaxing music for studying focus yoga spa enjoy.mp3",
      "rect" : [0, 0, 0, 0],
      "lastMod" : "20220601T154843",
      "sourceTracks" : [
        {
          "range" : [0, 5263672500],
          "type" : 2,
          "editRate" : 10000000,
          "trackRect" : [0, 0, 0, 0],
          "sampleRate" : 44100,
          "bitDepth" : 0,
          "numChannels" : 2,
          "integratedLUFS" : -17.9659160651001,
          "peakLevel" : 0.836176633834839,
          "metaData" : ""
        }
      ],
      "metadata" : {
        "timeAdded" : "20220601T154917.974184"
      }
    }
  ],
  "timeline" : {
    "id" : 9,
    "sceneTrack" : {
      "scenes" : [
        {
          "duration" : 276.666666666667,
          "title" : "",
          "type" : "",
          "csml" : {
            "tracks" : [
              {
                "trackIndex" : 0,
                "medias" : [
                  {
                    "id" : 10,
                    "_type" : "ScreenVMFile",
                    "src" : 6,
                    "trackNumber" : 0,
                    "attributes" : {
                      "ident" : "Rec 06-01-22_006"
                    },
                    "parameters" : {
                      "cursorScale" : {
                        "type" : "double",
                        "defaultValue" : 1.0,
                        "interp" : "linr"
                      },
                      "cursorOpacity" : {
                        "type" : "double",
                        "defaultValue" : 1.0,
                        "interp" : "linr"
                      }
                    },
                    "effects" : [

                    ],
                    "start" : 0,
                    "duration" : 169,
                    "mediaStart" : 0,
                    "mediaDuration" : 169,
                    "scalar" : 1,
                    "metadata" : {
                      "AutoAppliedSmartFocus" : "False",
                      "clipSpeedAttribute" : false
                    },
                    "animationTracks" : {

                    }
                  },
                  {
                    "id" : 11,
                    "_type" : "ScreenVMFile",
                    "src" : 1,
                    "trackNumber" : 0,
                    "attributes" : {
                      "ident" : "Rec 06-01-22"
                    },
                    "parameters" : {
                      "translation0" : {
                        "type" : "double",
                        "defaultValue" : 0.0,
                        "interp" : "eioe",
                        "keyframes" : [
                          {
                            "endTime" : 0,
                            "time" : -30,
                            "value" : -545.452767949774,
                            "duration" : 30
                          },
                          {
                            "endTime" : 31,
                            "time" : 1,
                            "value" : 0.238095238097403,
                            "duration" : 30
                          }
                        ]
                      },
                      "translation1" : {
                        "type" : "double",
                        "defaultValue" : 0.0,
                        "interp" : "eioe",
                        "keyframes" : [
                          {
                            "endTime" : 0,
                            "time" : -30,
                            "value" : -194.563077506547,
                            "duration" : 30
                          },
                          {
                            "endTime" : 31,
                            "time" : 1,
                            "value" : -2.8421709430404e-14,
                            "duration" : 30
                          }
                        ]
                      },
                      "scale0" : {
                        "type" : "double",
                        "defaultValue" : 1.0,
                        "interp" : "eioe",
                        "keyframes" : [
                          {
                            "endTime" : 0,
                            "time" : -30,
                            "value" : 1.99999976967868,
                            "duration" : 30
                          },
                          {
                            "endTime" : 31,
                            "time" : 1,
                            "value" : 0.999999453512895,
                            "duration" : 30
                          }
                        ]
                      },
                      "scale1" : {
                        "type" : "double",
                        "defaultValue" : 1.0,
                        "interp" : "eioe",
                        "keyframes" : [
                          {
                            "endTime" : 0,
                            "time" : -30,
                            "value" : 2.00000019355854,
                            "duration" : 30
                          },
                          {
                            "endTime" : 31,
                            "time" : 1,
                            "value" : 1.0,
                            "duration" : 30
                          }
                        ]
                      },
                      "cursorScale" : {
                        "type" : "double",
                        "defaultValue" : 1.0,
                        "interp" : "linr"
                      },
                      "cursorOpacity" : {
                        "type" : "double",
                        "defaultValue" : 1.0,
                        "interp" : "linr"
                      }
                    },
                    "effects" : [

                    ],
                    "start" : 169,
                    "duration" : 42,
                    "mediaStart" : 0,
                    "mediaDuration" : 42,
                    "scalar" : 1,
                    "metadata" : {
                      "AutoAppliedSmartFocus" : "False",
                      "clipSpeedAttribute" : false,
                      "default-scale0" : 1.0,
                      "default-scale1" : 1.0,
                      "default-translation0" : 0.0,
                      "default-translation1" : 0.0
                    },
                    "animationTracks" : {
                      "visual" : [
                        {
                          "endTime" : 0,
                          "duration" : 30,
                          "range" : [ -30, 30]
                        },
                        {
                          "endTime" : 31,
                          "duration" : 30,
                          "range" : [ 1, 30]
                        }
                      ]
                    }
                  },
                  {
                    "id" : 12,
                    "_type" : "ScreenVMFile",
                    "src" : 1,
                    "trackNumber" : 0,
                    "attributes" : {
                      "ident" : "Rec 06-01-22"
                    },
                    "parameters" : {
                      "translation0" : {
                        "type" : "double",
                        "defaultValue" : 3.32178728967847e-13,
                        "interp" : "eioe",
                        "keyframes" : [
                          {
                            "endTime" : 161,
                            "time" : 71,
                            "value" : 156.990198973805,
                            "duration" : 90
                          }
                        ]
                      },
                      "translation1" : {
                        "type" : "double",
                        "defaultValue" : 0.0,
                        "interp" : "eioe",
                        "keyframes" : [
                          {
                            "endTime" : 161,
                            "time" : 71,
                            "value" : -45.6307974746552,
                            "duration" : 90
                          }
                        ]
                      },
                      "scale0" : {
                        "type" : "double",
                        "defaultValue" : 1.0,
                        "interp" : "eioe",
                        "keyframes" : [
                          {
                            "endTime" : 161,
                            "time" : 71,
                            "value" : 1.29893373355091,
                            "duration" : 90
                          }
                        ]
                      },
                      "scale1" : {
                        "type" : "double",
                        "defaultValue" : 1.0,
                        "interp" : "eioe",
                        "keyframes" : [
                          {
                            "endTime" : 161,
                            "time" : 71,
                            "value" : 1.29893376375336,
                            "duration" : 90
                          }
                        ]
                      },
                      "cursorScale" : {
                        "type" : "double",
                        "defaultValue" : 1.0,
                        "interp" : "linr"
                      },
                      "cursorOpacity" : {
                        "type" : "double",
                        "defaultValue" : 1.0,
                        "interp" : "linr"
                      }
                    },
                    "effects" : [

                    ],
                    "start" : 211,
                    "duration" : 665,
                    "mediaStart" : 42,
                    "mediaDuration" : 665,
                    "scalar" : 1,
                    "metadata" : {
                      "AutoAppliedSmartFocus" : "False",
                      "clipSpeedAttribute" : false,
                      "default-scale0" : 1.0,
                      "default-scale1" : 1.0,
                      "default-translation0" : 0.0,
                      "default-translation1" : 0.0
                    },
                    "animationTracks" : {
                      "visual" : [
                        {
                          "endTime" : 161,
                          "duration" : 90,
                          "range" : [ 71, 90]
                        }
                      ]
                    }
                  },
                  {
                    "id" : 13,
                    "_type" : "ScreenVMFile",
                    "src" : 1,
                    "trackNumber" : 0,
                    "attributes" : {
                      "ident" : "Rec 06-01-22"
                    },
                    "parameters" : {
                      "translation0" : {
                        "type" : "double",
                        "defaultValue" : -4.76190476190147,
                        "interp" : "eioe",
                        "keyframes" : [
                          {
                            "endTime" : 738,
                            "time" : 708,
                            "value" : 599.231256651602,
                            "duration" : 30
                          }
                        ]
                      },
                      "translation1" : {
                        "type" : "double",
                        "defaultValue" : 0.0,
                        "interp" : "eioe",
                        "keyframes" : [
                          {
                            "endTime" : 738,
                            "time" : 708,
                            "value" : -126.914539163529,
                            "duration" : 30
                          }
                        ]
                      },
                      "scale0" : {
                        "type" : "double",
                        "defaultValue" : 1.0,
                        "interp" : "eioe",
                        "keyframes" : [
                          {
                            "endTime" : 738,
                            "time" : 708,
                            "value" : 1.87863821705128,
                            "duration" : 30
                          }
                        ]
                      },
                      "scale1" : {
                        "type" : "double",
                        "defaultValue" : 1.0,
                        "interp" : "eioe",
                        "keyframes" : [
                          {
                            "endTime" : 738,
                            "time" : 708,
                            "value" : 1.87863879446404,
                            "duration" : 30
                          }
                        ]
                      },
                      "cursorScale" : {
                        "type" : "double",
                        "defaultValue" : 1.0,
                        "interp" : "linr"
                      },
                      "cursorOpacity" : {
                        "type" : "double",
                        "defaultValue" : 1.0,
                        "interp" : "linr"
                      }
                    },
                    "effects" : [

                    ],
                    "start" : 876,
                    "duration" : 274,
                    "mediaStart" : 707,
                    "mediaDuration" : 389,
                    "scalar" : "274/389",
                    "metadata" : {
                      "AutoAppliedSmartFocus" : "False",
                      "clipSpeedAttribute" : true,
                      "default-scale0" : 1.0,
                      "default-scale1" : 1.0,
                      "default-translation0" : 0.0,
                      "default-translation1" : 0.0
                    },
                    "animationTracks" : {
                      "visual" : [
                        {
                          "endTime" : 738,
                          "duration" : 30,
                          "range" : [ 708, 30]
                        }
                      ]
                    }
                  },
                  {
                    "id" : 14,
                    "_type" : "ScreenVMFile",
                    "src" : 1,
                    "trackNumber" : 0,
                    "attributes" : {
                      "ident" : "Rec 06-01-22"
                    },
                    "parameters" : {
                      "translation0" : {
                        "type" : "double",
                        "defaultValue" : -4.76190476190147,
                        "interp" : "eioe",
                        "keyframes" : [
                          {
                            "endTime" : "335387/272",
                            "time" : 1117,
                            "value" : 71.7310983860856,
                            "duration" : "31563/272"
                          }
                        ]
                      },
                      "translation1" : {
                        "type" : "double",
                        "defaultValue" : 0.0,
                        "interp" : "eioe",
                        "keyframes" : [
                          {
                            "endTime" : "335387/272",
                            "time" : 1117,
                            "value" : 59.0059719942381,
                            "duration" : "31563/272"
                          }
                        ]
                      },
                      "scale0" : {
                        "type" : "double",
                        "defaultValue" : 1.0,
                        "interp" : "eioe",
                        "keyframes" : [
                          {
                            "endTime" : "335387/272",
                            "time" : 1117,
                            "value" : 1.36473465256593,
                            "duration" : "31563/272"
                          }
                        ]
                      },
                      "scale1" : {
                        "type" : "double",
                        "defaultValue" : 1.0,
                        "interp" : "eioe",
                        "keyframes" : [
                          {
                            "endTime" : "335387/272",
                            "time" : 1117,
                            "value" : 1.36473459913152,
                            "duration" : "31563/272"
                          }
                        ]
                      },
                      "cursorScale" : {
                        "type" : "double",
                        "defaultValue" : 1.0,
                        "interp" : "linr"
                      },
                      "cursorOpacity" : {
                        "type" : "double",
                        "defaultValue" : 1.0,
                        "interp" : "linr"
                      }
                    },
                    "effects" : [

                    ],
                    "start" : 1150,
                    "duration" : 1088,
                    "mediaStart" : 1096,
                    "mediaDuration" : 1169,
                    "scalar" : "1088/1169",
                    "metadata" : {
                      "AutoAppliedSmartFocus" : "False",
                      "clipSpeedAttribute" : true,
                      "default-scale0" : 1.0,
                      "default-scale1" : 1.0,
                      "default-translation0" : 0.0,
                      "default-translation1" : 0.0
                    },
                    "animationTracks" : {
                      "visual" : [
                        {
                          "endTime" : "335387/272",
                          "duration" : "31563/272",
                          "range" : [ 1117, "31563/272"]
                        }
                      ]
                    }
                  },
                  {
                    "id" : 15,
                    "_type" : "ScreenVMFile",
                    "src" : 1,
                    "trackNumber" : 0,
                    "attributes" : {
                      "ident" : "Rec 06-01-22"
                    },
                    "parameters" : {
                      "translation0" : {
                        "type" : "double",
                        "defaultValue" : 0.0,
                        "interp" : "eioe",
                        "keyframes" : [
                          {
                            "endTime" : 2265,
                            "time" : 2261,
                            "value" : -4.3224577111834,
                            "duration" : 4
                          },
                          {
                            "endTime" : "2198973/925",
                            "time" : 2265,
                            "value" : 185.642662012787,
                            "duration" : "103848/925"
                          },
                          {
                            "endTime" : 3021,
                            "time" : 2991,
                            "value" : 5.34893289956297,
                            "duration" : 30
                          }
                        ]
                      },
                      "translation1" : {
                        "type" : "double",
                        "defaultValue" : 0.0,
                        "interp" : "eioe",
                        "keyframes" : [
                          {
                            "endTime" : 2265,
                            "time" : 2261,
                            "value" : -0.179034246595759,
                            "duration" : 4
                          },
                          {
                            "endTime" : "2198973/925",
                            "time" : 2265,
                            "value" : -75.6323067254206,
                            "duration" : "103848/925"
                          },
                          {
                            "endTime" : 3021,
                            "time" : 2991,
                            "value" : 0.447879171918207,
                            "duration" : 30
                          }
                        ]
                      },
                      "scale0" : {
                        "type" : "double",
                        "defaultValue" : 1.0,
                        "interp" : "eioe",
                        "keyframes" : [
                          {
                            "endTime" : 2265,
                            "time" : 2261,
                            "value" : 1.00064435054893,
                            "duration" : 4
                          },
                          {
                            "endTime" : "2198973/925",
                            "time" : 2265,
                            "value" : 1.27220333138507,
                            "duration" : "103848/925"
                          },
                          {
                            "endTime" : 3021,
                            "time" : 2991,
                            "value" : 1.10519391132023,
                            "duration" : 30
                          }
                        ]
                      },
                      "scale1" : {
                        "type" : "double",
                        "defaultValue" : 1.0,
                        "interp" : "eioe",
                        "keyframes" : [
                          {
                            "endTime" : 2265,
                            "time" : 2261,
                            "value" : 1.00064435131638,
                            "duration" : 4
                          },
                          {
                            "endTime" : "2198973/925",
                            "time" : 2265,
                            "value" : 1.27220365559222,
                            "duration" : "103848/925"
                          },
                          {
                            "endTime" : 3021,
                            "time" : 2991,
                            "value" : 1.10519420110233,
                            "duration" : 30
                          }
                        ]
                      },
                      "cursorScale" : {
                        "type" : "double",
                        "defaultValue" : 1.0,
                        "interp" : "linr"
                      },
                      "cursorOpacity" : {
                        "type" : "double",
                        "defaultValue" : 1.0,
                        "interp" : "linr"
                      }
                    },
                    "effects" : [

                    ],
                    "start" : 2238,
                    "duration" : 925,
                    "mediaStart" : 2265,
                    "mediaDuration" : 1169,
                    "scalar" : "925/1169",
                    "metadata" : {
                      "AutoAppliedSmartFocus" : "False",
                      "clipSpeedAttribute" : true,
                      "default-scale0" : 1.0,
                      "default-scale1" : 1.0,
                      "default-translation0" : 0.0,
                      "default-translation1" : 0.0
                    },
                    "animationTracks" : {
                      "visual" : [
                        {
                          "endTime" : 2265,
                          "duration" : 4,
                          "range" : [ 2261, 4]
                        },
                        {
                          "endTime" : "2198973/925",
                          "duration" : "103848/925",
                          "range" : [ 2265, "103848/925"]
                        },
                        {
                          "endTime" : 3021,
                          "duration" : 30,
                          "range" : [ 2991, 30]
                        }
                      ]
                    }
                  },
                  {
                    "id" : 16,
                    "_type" : "ScreenVMFile",
                    "src" : 2,
                    "trackNumber" : 0,
                    "attributes" : {
                      "ident" : "Rec 06-01-22_001"
                    },
                    "parameters" : {
                      "translation0" : {
                        "type" : "double",
                        "defaultValue" : 0.0,
                        "interp" : "eioe",
                        "keyframes" : [
                          {
                            "endTime" : 0,
                            "time" : -10,
                            "value" : -18.6078671283298,
                            "duration" : 10
                          },
                          {
                            "endTime" : 56,
                            "time" : 0,
                            "value" : -29.3150603408159,
                            "duration" : 56
                          }
                        ]
                      },
                      "translation1" : {
                        "type" : "double",
                        "defaultValue" : 0.0,
                        "interp" : "eioe",
                        "keyframes" : [
                          {
                            "endTime" : 0,
                            "time" : -10,
                            "value" : 2.23580957737778,
                            "duration" : 10
                          },
                          {
                            "endTime" : 56,
                            "time" : 0,
                            "value" : 48.6959325952881,
                            "duration" : 56
                          }
                        ]
                      },
                      "scale0" : {
                        "type" : "double",
                        "defaultValue" : 1.0,
                        "interp" : "eioe",
                        "keyframes" : [
                          {
                            "endTime" : 0,
                            "time" : -10,
                            "value" : 1.0094291595775,
                            "duration" : 10
                          },
                          {
                            "endTime" : 56,
                            "time" : 0,
                            "value" : 1.20536709559787,
                            "duration" : 56
                          }
                        ]
                      },
                      "scale1" : {
                        "type" : "double",
                        "defaultValue" : 1.0,
                        "interp" : "eioe",
                        "keyframes" : [
                          {
                            "endTime" : 0,
                            "time" : -10,
                            "value" : 1.00942916903989,
                            "duration" : 10
                          },
                          {
                            "endTime" : 56,
                            "time" : 0,
                            "value" : 1.20536730168872,
                            "duration" : 56
                          }
                        ]
                      },
                      "cursorScale" : {
                        "type" : "double",
                        "defaultValue" : 1.0,
                        "interp" : "linr"
                      },
                      "cursorOpacity" : {
                        "type" : "double",
                        "defaultValue" : 1.0,
                        "interp" : "linr"
                      }
                    },
                    "effects" : [

                    ],
                    "start" : 3163,
                    "duration" : 741,
                    "mediaStart" : 0,
                    "mediaDuration" : 741,
                    "scalar" : 1,
                    "metadata" : {
                      "AutoAppliedSmartFocus" : "False",
                      "clipSpeedAttribute" : false,
                      "default-scale0" : 1.0,
                      "default-scale1" : 1.0,
                      "default-translation0" : 0.0,
                      "default-translation1" : 0.0
                    },
                    "animationTracks" : {
                      "visual" : [
                        {
                          "endTime" : 0,
                          "duration" : 10,
                          "range" : [ -10, 10]
                        },
                        {
                          "endTime" : 56,
                          "duration" : 56,
                          "range" : [ 0, 56]
                        }
                      ]
                    }
                  },
                  {
                    "id" : 17,
                    "_type" : "ScreenVMFile",
                    "src" : 2,
                    "trackNumber" : 0,
                    "attributes" : {
                      "ident" : "Rec 06-01-22_001"
                    },
                    "parameters" : {
                      "translation0" : {
                        "type" : "double",
                        "defaultValue" : 0.0,
                        "interp" : "eioe",
                        "keyframes" : [
                          {
                            "endTime" : 741,
                            "time" : 711,
                            "value" : -11.6763832366969,
                            "duration" : 30
                          },
                          {
                            "endTime" : 828,
                            "time" : 741,
                            "value" : 42.4778911991789,
                            "duration" : 87
                          }
                        ]
                      },
                      "translation1" : {
                        "type" : "double",
                        "defaultValue" : 0.0,
                        "interp" : "eioe",
                        "keyframes" : [
                          {
                            "endTime" : 741,
                            "time" : 711,
                            "value" : 4.98095324934959,
                            "duration" : 30
                          },
                          {
                            "endTime" : 828,
                            "time" : 741,
                            "value" : 37.8801494613036,
                            "duration" : 87
                          }
                        ]
                      },
                      "scale0" : {
                        "type" : "double",
                        "defaultValue" : 1.0,
                        "interp" : "eioe",
                        "keyframes" : [
                          {
                            "endTime" : 741,
                            "time" : 711,
                            "value" : 1.0360757994685,
                            "duration" : 30
                          },
                          {
                            "endTime" : 828,
                            "time" : 741,
                            "value" : 1.27435645495793,
                            "duration" : 87
                          }
                        ]
                      },
                      "scale1" : {
                        "type" : "double",
                        "defaultValue" : 1.0,
                        "interp" : "eioe",
                        "keyframes" : [
                          {
                            "endTime" : 741,
                            "time" : 711,
                            "value" : 1.03607580638489,
                            "duration" : 30
                          },
                          {
                            "endTime" : 828,
                            "time" : 741,
                            "value" : 1.27435650755708,
                            "duration" : 87
                          }
                        ]
                      },
                      "cursorScale" : {
                        "type" : "double",
                        "defaultValue" : 1.0,
                        "interp" : "linr"
                      },
                      "cursorOpacity" : {
                        "type" : "double",
                        "defaultValue" : 1.0,
                        "interp" : "linr"
                      }
                    },
                    "effects" : [

                    ],
                    "start" : 3904,
                    "duration" : 591,
                    "mediaStart" : 741,
                    "mediaDuration" : 591,
                    "scalar" : 1,
                    "metadata" : {
                      "AutoAppliedSmartFocus" : "False",
                      "clipSpeedAttribute" : false,
                      "default-scale0" : 1.0,
                      "default-scale1" : 1.0,
                      "default-translation0" : 0.0,
                      "default-translation1" : 0.0
                    },
                    "animationTracks" : {
                      "visual" : [
                        {
                          "endTime" : 741,
                          "duration" : 30,
                          "range" : [ 711, 30]
                        },
                        {
                          "endTime" : 828,
                          "duration" : 87,
                          "range" : [ 741, 87]
                        }
                      ]
                    }
                  },
                  {
                    "id" : 18,
                    "_type" : "ScreenVMFile",
                    "src" : 2,
                    "trackNumber" : 0,
                    "attributes" : {
                      "ident" : "Rec 06-01-22_001"
                    },
                    "parameters" : {
                      "translation0" : {
                        "type" : "double",
                        "defaultValue" : 0.0,
                        "interp" : "eioe",
                        "keyframes" : [
                          {
                            "endTime" : 828,
                            "time" : 711,
                            "value" : 42.4778911991789,
                            "duration" : 117
                          },
                          {
                            "endTime" : 1332,
                            "time" : 1302,
                            "value" : 4.60144353680957,
                            "duration" : 30
                          },
                          {
                            "endTime" : 1392,
                            "time" : 1332,
                            "value" : -50.2875518529276,
                            "duration" : 60
                          }
                        ]
                      },
                      "translation1" : {
                        "type" : "double",
                        "defaultValue" : 0.0,
                        "interp" : "eioe",
                        "keyframes" : [
                          {
                            "endTime" : 828,
                            "time" : 711,
                            "value" : 37.8801494613036,
                            "duration" : 117
                          },
                          {
                            "endTime" : 1332,
                            "time" : 1302,
                            "value" : 26.7993181779826,
                            "duration" : 30
                          },
                          {
                            "endTime" : 1392,
                            "time" : 1332,
                            "value" : -11.9835913136412,
                            "duration" : 60
                          }
                        ]
                      },
                      "scale0" : {
                        "type" : "double",
                        "defaultValue" : 1.0,
                        "interp" : "eioe",
                        "keyframes" : [
                          {
                            "endTime" : 828,
                            "time" : 711,
                            "value" : 1.27435645495793,
                            "duration" : 117
                          },
                          {
                            "endTime" : 1332,
                            "time" : 1302,
                            "value" : 1.20783613986483,
                            "duration" : 30
                          },
                          {
                            "endTime" : 1392,
                            "time" : 1332,
                            "value" : 0.975015037038986,
                            "duration" : 60
                          }
                        ]
                      },
                      "scale1" : {
                        "type" : "double",
                        "defaultValue" : 1.0,
                        "interp" : "eioe",
                        "keyframes" : [
                          {
                            "endTime" : 828,
                            "time" : 711,
                            "value" : 1.27435650755708,
                            "duration" : 117
                          },
                          {
                            "endTime" : 1332,
                            "time" : 1302,
                            "value" : 1.2078362636941,
                            "duration" : 30
                          },
                          {
                            "endTime" : 1392,
                            "time" : 1332,
                            "value" : 0.975015410173651,
                            "duration" : 60
                          }
                        ]
                      },
                      "cursorScale" : {
                        "type" : "double",
                        "defaultValue" : 1.0,
                        "interp" : "linr"
                      },
                      "cursorOpacity" : {
                        "type" : "double",
                        "defaultValue" : 1.0,
                        "interp" : "linr"
                      }
                    },
                    "effects" : [

                    ],
                    "start" : 4495,
                    "duration" : 308,
                    "mediaStart" : 1332,
                    "mediaDuration" : 308,
                    "scalar" : 1,
                    "metadata" : {
                      "AutoAppliedSmartFocus" : "False",
                      "clipSpeedAttribute" : false,
                      "default-scale0" : 1.0,
                      "default-scale1" : 1.0,
                      "default-translation0" : 0.0,
                      "default-translation1" : 0.0
                    },
                    "animationTracks" : {
                      "visual" : [
                        {
                          "endTime" : 828,
                          "duration" : 117,
                          "range" : [ 711, 117]
                        },
                        {
                          "endTime" : 1332,
                          "duration" : 30,
                          "range" : [ 1302, 30]
                        },
                        {
                          "endTime" : 1392,
                          "duration" : 60,
                          "range" : [ 1332, 60]
                        }
                      ]
                    }
                  },
                  {
                    "id" : 19,
                    "_type" : "ScreenVMFile",
                    "src" : 2,
                    "trackNumber" : 0,
                    "attributes" : {
                      "ident" : "Rec 06-01-22_001"
                    },
                    "parameters" : {
                      "translation0" : {
                        "type" : "double",
                        "defaultValue" : 0.0,
                        "interp" : "eioe",
                        "keyframes" : [
                          {
                            "endTime" : 828,
                            "time" : 711,
                            "value" : 42.4778911991789,
                            "duration" : 117
                          },
                          {
                            "endTime" : 1392,
                            "time" : 1302,
                            "value" : -50.2875518529276,
                            "duration" : 90
                          },
                          {
                            "endTime" : 1640,
                            "time" : 1610,
                            "value" : -67.7295234982137,
                            "duration" : 30
                          },
                          {
                            "endTime" : "1870058/1047",
                            "time" : 1640,
                            "value" : -53.3902054232188,
                            "duration" : "152978/1047"
                          }
                        ]
                      },
                      "translation1" : {
                        "type" : "double",
                        "defaultValue" : 0.0,
                        "interp" : "eioe",
                        "keyframes" : [
                          {
                            "endTime" : 828,
                            "time" : 711,
                            "value" : 37.8801494613036,
                            "duration" : 117
                          },
                          {
                            "endTime" : 1392,
                            "time" : 1302,
                            "value" : -11.9835913136412,
                            "duration" : 90
                          },
                          {
                            "endTime" : 1640,
                            "time" : 1610,
                            "value" : -7.72836034176926,
                            "duration" : 30
                          },
                          {
                            "endTime" : "1870058/1047",
                            "time" : 1640,
                            "value" : 61.3364291094089,
                            "duration" : "152978/1047"
                          }
                        ]
                      },
                      "scale0" : {
                        "type" : "double",
                        "defaultValue" : 1.0,
                        "interp" : "eioe",
                        "keyframes" : [
                          {
                            "endTime" : 828,
                            "time" : 711,
                            "value" : 1.27435645495793,
                            "duration" : 117
                          },
                          {
                            "endTime" : 1392,
                            "time" : 1302,
                            "value" : 0.975015037038986,
                            "duration" : 90
                          },
                          {
                            "endTime" : 1640,
                            "time" : 1610,
                            "value" : 0.990095201611957,
                            "duration" : 30
                          },
                          {
                            "endTime" : "1870058/1047",
                            "time" : 1640,
                            "value" : 1.23485474533731,
                            "duration" : "152978/1047"
                          }
                        ]
                      },
                      "scale1" : {
                        "type" : "double",
                        "defaultValue" : 1.0,
                        "interp" : "eioe",
                        "keyframes" : [
                          {
                            "endTime" : 828,
                            "time" : 711,
                            "value" : 1.27435650755708,
                            "duration" : 117
                          },
                          {
                            "endTime" : 1392,
                            "time" : 1302,
                            "value" : 0.975015410173651,
                            "duration" : 90
                          },
                          {
                            "endTime" : 1640,
                            "time" : 1610,
                            "value" : 0.990095597966187,
                            "duration" : 30
                          },
                          {
                            "endTime" : "1870058/1047",
                            "time" : 1640,
                            "value" : 1.23485551855812,
                            "duration" : "152978/1047"
                          }
                        ]
                      },
                      "cursorScale" : {
                        "type" : "double",
                        "defaultValue" : 1.0,
                        "interp" : "linr"
                      },
                      "cursorOpacity" : {
                        "type" : "double",
                        "defaultValue" : 1.0,
                        "interp" : "linr"
                      }
                    },
                    "effects" : [

                    ],
                    "start" : 4803,
                    "duration" : 1047,
                    "mediaStart" : 1640,
                    "mediaDuration" : 1487,
                    "scalar" : "1047/1487",
                    "metadata" : {
                      "AutoAppliedSmartFocus" : "False",
                      "clipSpeedAttribute" : true,
                      "default-scale0" : 1.0,
                      "default-scale1" : 1.0,
                      "default-translation0" : 0.0,
                      "default-translation1" : 0.0
                    },
                    "animationTracks" : {
                      "visual" : [
                        {
                          "endTime" : 828,
                          "duration" : 117,
                          "range" : [ 711, 117]
                        },
                        {
                          "endTime" : 1392,
                          "duration" : 90,
                          "range" : [ 1302, 90]
                        },
                        {
                          "endTime" : 1640,
                          "duration" : 30,
                          "range" : [ 1610, 30]
                        },
                        {
                          "endTime" : "1870058/1047",
                          "duration" : "152978/1047",
                          "range" : [ 1640, "152978/1047"]
                        }
                      ]
                    }
                  },
                  {
                    "id" : 20,
                    "_type" : "ScreenVMFile",
                    "src" : 3,
                    "trackNumber" : 0,
                    "attributes" : {
                      "ident" : "Rec 06-01-22_002"
                    },
                    "parameters" : {
                      "translation0" : {
                        "type" : "double",
                        "defaultValue" : -17.2619047619012,
                        "interp" : "eioe",
                        "keyframes" : [
                          {
                            "endTime" : 89,
                            "time" : 59,
                            "value" : 28.7520879502612,
                            "duration" : 30
                          },
                          {
                            "endTime" : 201,
                            "time" : 171,
                            "value" : 257.223515362488,
                            "duration" : 30
                          }
                        ]
                      },
                      "translation1" : {
                        "type" : "double",
                        "defaultValue" : 0.0,
                        "interp" : "eioe",
                        "keyframes" : [
                          {
                            "endTime" : 89,
                            "time" : 59,
                            "value" : 57.5041753923941,
                            "duration" : 30
                          },
                          {
                            "endTime" : 201,
                            "time" : 171,
                            "value" : -113.415681465051,
                            "duration" : 30
                          }
                        ]
                      },
                      "scale0" : {
                        "type" : "double",
                        "defaultValue" : 1.0,
                        "interp" : "eioe",
                        "keyframes" : [
                          {
                            "endTime" : 89,
                            "time" : 59,
                            "value" : 1.32999987900069,
                            "duration" : 30
                          },
                          {
                            "endTime" : 201,
                            "time" : 171,
                            "value" : 1.31158126417833,
                            "duration" : 30
                          }
                        ]
                      },
                      "scale1" : {
                        "type" : "double",
                        "defaultValue" : 1.0,
                        "interp" : "eioe",
                        "keyframes" : [
                          {
                            "endTime" : 89,
                            "time" : 59,
                            "value" : 1.33000005587383,
                            "duration" : 30
                          },
                          {
                            "endTime" : 201,
                            "time" : 171,
                            "value" : 1.31158155946493,
                            "duration" : 30
                          }
                        ]
                      },
                      "cursorScale" : {
                        "type" : "double",
                        "defaultValue" : 1.0,
                        "interp" : "linr"
                      },
                      "cursorOpacity" : {
                        "type" : "double",
                        "defaultValue" : 1.0,
                        "interp" : "linr"
                      }
                    },
                    "effects" : [

                    ],
                    "start" : 5850,
                    "duration" : 317,
                    "mediaStart" : 0,
                    "mediaDuration" : 317,
                    "scalar" : 1,
                    "metadata" : {
                      "AutoAppliedSmartFocus" : "False",
                      "clipSpeedAttribute" : false,
                      "default-scale0" : 1.0,
                      "default-scale1" : 1.0,
                      "default-translation0" : 0.0,
                      "default-translation1" : 0.0
                    },
                    "animationTracks" : {
                      "visual" : [
                        {
                          "endTime" : 89,
                          "duration" : 30,
                          "range" : [ 59, 30]
                        },
                        {
                          "endTime" : 201,
                          "duration" : 30,
                          "range" : [ 171, 30]
                        }
                      ]
                    }
                  },
                  {
                    "id" : 21,
                    "_type" : "ScreenVMFile",
                    "src" : 4,
                    "trackNumber" : 0,
                    "attributes" : {
                      "ident" : "Rec 06-01-22_003"
                    },
                    "parameters" : {
                      "translation0" : {
                        "type" : "double",
                        "defaultValue" : -17.2619047619012,
                        "interp" : "eioe",
                        "keyframes" : [
                          {
                            "endTime" : "1448/9",
                            "time" : 26,
                            "value" : -95.0491850803408,
                            "duration" : "1214/9"
                          }
                        ]
                      },
                      "translation1" : {
                        "type" : "double",
                        "defaultValue" : 0.0,
                        "interp" : "eioe",
                        "keyframes" : [
                          {
                            "endTime" : "1448/9",
                            "time" : 26,
                            "value" : 26.7586633136252,
                            "duration" : "1214/9"
                          }
                        ]
                      },
                      "scale0" : {
                        "type" : "double",
                        "defaultValue" : 1.0,
                        "interp" : "eioe",
                        "keyframes" : [
                          {
                            "endTime" : "1448/9",
                            "time" : 26,
                            "value" : 1.40695487026929,
                            "duration" : "1214/9"
                          }
                        ]
                      },
                      "scale1" : {
                        "type" : "double",
                        "defaultValue" : 1.0,
                        "interp" : "eioe",
                        "keyframes" : [
                          {
                            "endTime" : "1448/9",
                            "time" : 26,
                            "value" : 1.40695515072969,
                            "duration" : "1214/9"
                          }
                        ]
                      },
                      "cursorScale" : {
                        "type" : "double",
                        "defaultValue" : 1.0,
                        "interp" : "linr"
                      },
                      "cursorOpacity" : {
                        "type" : "double",
                        "defaultValue" : 1.0,
                        "interp" : "linr"
                      }
                    },
                    "effects" : [

                    ],
                    "start" : 6167,
                    "duration" : 1107,
                    "mediaStart" : 0,
                    "mediaDuration" : 1821,
                    "scalar" : "369/607",
                    "metadata" : {
                      "AutoAppliedSmartFocus" : "False",
                      "clipSpeedAttribute" : true,
                      "default-scale0" : 1.0,
                      "default-scale1" : 1.0,
                      "default-translation0" : 0.0,
                      "default-translation1" : 0.0
                    },
                    "animationTracks" : {
                      "visual" : [
                        {
                          "endTime" : "1448/9",
                          "duration" : "1214/9",
                          "range" : [ 26, "1214/9"]
                        }
                      ]
                    }
                  },
                  {
                    "id" : 22,
                    "_type" : "ScreenVMFile",
                    "src" : 5,
                    "trackNumber" : 0,
                    "attributes" : {
                      "ident" : "Rec 06-01-22_004"
                    },
                    "parameters" : {
                      "translation0" : {
                        "type" : "double",
                        "defaultValue" : -17.2619047619012,
                        "interp" : "eioe",
                        "keyframes" : [
                          {
                            "endTime" : 125,
                            "time" : 0,
                            "value" : 116.908841762446,
                            "duration" : 125
                          },
                          {
                            "endTime" : 175,
                            "time" : 125,
                            "value" : 237.885702605957,
                            "duration" : 50
                          },
                          {
                            "endTime" : 547,
                            "time" : 517,
                            "value" : 124.691813392367,
                            "duration" : 30
                          }
                        ]
                      },
                      "translation1" : {
                        "type" : "double",
                        "defaultValue" : 0.0,
                        "interp" : "eioe",
                        "keyframes" : [
                          {
                            "endTime" : 125,
                            "time" : 0,
                            "value" : -34.55156414049,
                            "duration" : 125
                          },
                          {
                            "endTime" : 175,
                            "time" : 125,
                            "value" : -15.0566378685709,
                            "duration" : 50
                          },
                          {
                            "endTime" : 547,
                            "time" : 517,
                            "value" : -66.5511554242674,
                            "duration" : 30
                          }
                        ]
                      },
                      "scale0" : {
                        "type" : "double",
                        "defaultValue" : 1.0,
                        "interp" : "eioe",
                        "keyframes" : [
                          {
                            "endTime" : 125,
                            "time" : 0,
                            "value" : 2.03702174992796,
                            "duration" : 125
                          },
                          {
                            "endTime" : 175,
                            "time" : 125,
                            "value" : 1.39295979991603,
                            "duration" : 50
                          },
                          {
                            "endTime" : 547,
                            "time" : 517,
                            "value" : 1.18283196794503,
                            "duration" : 30
                          }
                        ]
                      },
                      "scale1" : {
                        "type" : "double",
                        "defaultValue" : 1.0,
                        "interp" : "eioe",
                        "keyframes" : [
                          {
                            "endTime" : 125,
                            "time" : 0,
                            "value" : 2.03702225934555,
                            "duration" : 125
                          },
                          {
                            "endTime" : 175,
                            "time" : 125,
                            "value" : 1.39296044187532,
                            "duration" : 50
                          },
                          {
                            "endTime" : 547,
                            "time" : 517,
                            "value" : 1.18283283545891,
                            "duration" : 30
                          }
                        ]
                      },
                      "cursorScale" : {
                        "type" : "double",
                        "defaultValue" : 1.0,
                        "interp" : "linr"
                      },
                      "cursorOpacity" : {
                        "type" : "double",
                        "defaultValue" : 1.0,
                        "interp" : "linr"
                      }
                    },
                    "effects" : [

                    ],
                    "start" : 7274,
                    "duration" : 952,
                    "mediaStart" : 0,
                    "mediaDuration" : 952,
                    "scalar" : 1,
                    "metadata" : {
                      "AutoAppliedSmartFocus" : "False",
                      "clipSpeedAttribute" : false,
                      "default-scale0" : 1.0,
                      "default-scale1" : 1.0,
                      "default-translation0" : 0.0,
                      "default-translation1" : 0.0
                    },
                    "animationTracks" : {
                      "visual" : [
                        {
                          "endTime" : 125,
                          "duration" : 125,
                          "range" : [ 0, 125]
                        },
                        {
                          "endTime" : 175,
                          "duration" : 50,
                          "range" : [ 125, 50]
                        },
                        {
                          "endTime" : 547,
                          "duration" : 30,
                          "range" : [ 517, 30]
                        }
                      ]
                    }
                  },
                  {
                    "id" : 23,
                    "_type" : "ScreenVMFile",
                    "src" : 6,
                    "trackNumber" : 0,
                    "attributes" : {
                      "ident" : "Rec 06-01-22_006"
                    },
                    "parameters" : {
                      "translation0" : {
                        "type" : "double",
                        "defaultValue" : -22.2619047619007,
                        "interp" : "eioe"
                      },
                      "cursorScale" : {
                        "type" : "double",
                        "defaultValue" : 1.0,
                        "interp" : "linr"
                      },
                      "cursorOpacity" : {
                        "type" : "double",
                        "defaultValue" : 1.0,
                        "interp" : "linr"
                      }
                    },
                    "effects" : [

                    ],
                    "start" : 8226,
                    "duration" : 74,
                    "mediaStart" : 299,
                    "mediaDuration" : 74,
                    "scalar" : 1,
                    "metadata" : {
                      "AutoAppliedSmartFocus" : "False",
                      "clipSpeedAttribute" : false,
                      "default-translation0" : 0.0
                    },
                    "animationTracks" : {

                    }
                  }
                ],
                "transitions" : [
                  {
                    "name" : "RandomDissolve",
                    "duration" : 15,
                    "trivial" : false,
                    "reverse" : false,
                    "useAudioPreRoll" : true,
                    "useVisualPreRoll" : true,
                    "leftMedia" : 10,
                    "rightMedia" : 11
                  },
                  {
                    "name" : "RandomDissolve",
                    "duration" : 15,
                    "trivial" : false,
                    "reverse" : false,
                    "useAudioPreRoll" : true,
                    "useVisualPreRoll" : true,
                    "leftMedia" : 11,
                    "rightMedia" : 12
                  },
                  {
                    "name" : "RandomDissolve",
                    "duration" : 15,
                    "trivial" : false,
                    "reverse" : false,
                    "useAudioPreRoll" : true,
                    "useVisualPreRoll" : true,
                    "leftMedia" : 22,
                    "rightMedia" : 23
                  }
                ]
              },
              {
                "trackIndex" : 1,
                "medias" : [
                  {
                    "id" : 24,
                    "_type" : "AMFile",
                    "src" : 8,
                    "trackNumber" : 0,
                    "attributes" : {
                      "ident" : "y2mate.com - relaxdaily N079 cool  calm soft  slow  relaxing music for studying focus yoga spa enjoy",
                      "gain" : 1.0,
                      "mixToMono" : false
                    },
                      "channelNumber" : "0,1",
                    "effects" : [

                    ],
                    "start" : 211,
                    "duration" : 8066,
                    "mediaStart" : 0,
                    "mediaDuration" : 8066,
                    "scalar" : 1,
                    "metadata" : {
                      "clipSpeedAttribute" : false
                    },
                    "animationTracks" : {

                    }
                  }
                ]
              },
              {
                "trackIndex" : 2,
                "medias" : [
                ]
              }
            ]
          }
        }
      ]
    },
    "trackAttributes" : [
      {
        "ident" : "",
        "audioMuted" : false,
        "videoHidden" : false,
        "magnetic" : false,
        "matte" : 0,
        "metadata" : {
          "IsLocked" : "False",
          "WinTrackHeight" : "56"
        }
      },
      {
        "ident" : "",
        "audioMuted" : false,
        "videoHidden" : false,
        "magnetic" : false,
        "matte" : 0,
        "metadata" : {
          "IsLocked" : "False",
          "WinTrackHeight" : "56"
        }
      },
      {
        "ident" : "",
        "audioMuted" : false,
        "videoHidden" : false,
        "magnetic" : false,
        "matte" : 0,
        "metadata" : {
          "IsLocked" : "False",
          "WinTrackHeight" : "56"
        }
      }
    ],
    "captionAttributes" : {
      "enabled" : true,
      "fontName" : "Arial",
      "fontSize" : 43,
      "backgroundColor" : [ 0, 0, 0, 191],
      "foregroundColor" : [ 255, 255, 255, 255],
      "lang" : "en",
      "alignment" : 0,
      "defaultFontSize" : true,
      "opacity" : 0.5,
      "backgroundEnabled" : true,
      "backgroundOnlyAroundText" : true
    },
    "backgroundColor" : [ 0, 0, 0, 255]
  },
  "metadata" : {
    "AutoSaveFile" : "C:\\Users\\hp\\AppData\\Local\\TechSmith\\Camtasia Studio\\19.0\\Auto-Saves\\Pharrmacy GUI55eb5c.autosave.tscproj",
    "CanvasZoom" : 42,
    "Date" : "2022-06-01 07:20:09 PM",
    "IsAutoSave" : "0",
    "Language" : "ENU",
    "ProfileName" : "",
    "ProjectDimensionsChanged" : "1",
    "Title" : "Pharrmacy GUI",
    "audioNarrationNotes" : "",
    "calloutStyle" : "Basic",
    "canvasDetached" : "False",
    "canvasPositionHeight" : "0",
    "canvasPositionLeft" : "0",
    "canvasPositionTop" : "0",
    "canvasPositionWidth" : "0"
  }
}
